<svg width="103" height="46" viewBox="0 0 103 46" fill="none" xmlns="http://www.w3.org/2000/svg">
<g id="Ws Logo">
<path id="Vector" d="M60.992 16.8987C63.6098 16.8987 65.7321 14.7887 65.7321 12.1859C65.7321 9.58313 63.6098 7.47314 60.992 7.47314C58.374 7.47314 56.2517 9.58313 56.2517 12.1859C56.2517 14.7887 58.374 16.8987 60.992 16.8987Z" fill="#1F2937"/>
<path id="Vector_2" d="M75.2641 39.1306V21.1503H80.0559V16.8987H75.2641V7.47314H74.3367L70.5755 12.6982V21.2528H63.3106H62.3831L58.6218 26.4778V39.1818H63.259V25.4533H70.5239V39.1306C70.5239 43.3823 73.1001 45.7387 77.8402 45.7387L80.5195 42.1529L77.0675 41.4357C75.9854 41.1796 75.2641 40.3599 75.2641 39.1306Z" fill="#1F2937"/>
<path id="Vector_3" d="M44.3495 16.4372C41.2581 16.4372 39.867 18.0764 38.888 19.0497L38.6304 18.7936V0.19873H37.7544L33.8901 5.52618V38.9998H36.2603H38.6304V23.5063C39.7123 22.277 40.7944 21.3549 42.3401 20.8938C42.6492 20.7914 43.0099 20.7401 43.3706 20.6889C43.5252 20.6889 43.6797 20.6377 43.8857 20.6377C47.0288 20.6377 48.5229 22.3282 48.626 25.3504V39.079H49.4503L53.3662 33.649V25.4017C53.4177 20.228 50.0687 16.4372 44.3495 16.4372Z" fill="#1F2937"/>
<path id="Vector_4" d="M8.69483 30.6781L4.83054 16.8984H0.141846L6.32473 39.1304H11.0134L15.3415 23.609H10.6527L8.69483 30.6781Z" fill="#1F2937"/>
<path id="Vector_5" d="M22.0395 30.6781L20.0816 23.609H15.3413L19.6694 39.1304H24.4095L30.5925 16.8984H25.8522L22.0395 30.6781Z" fill="#1F2937"/>
<path id="Vector_6" d="M102.726 24.0701C101.335 19.3574 97.3675 16.4375 92.7819 16.4375C86.599 16.4375 81.8589 21.1502 81.8589 28.0145C81.8589 34.8787 86.8568 39.5914 92.7819 39.5914C97.3161 39.5914 100.614 37.235 102.52 33.9055L98.5011 32.01C97.7798 33.9055 95.8219 35.3397 92.9881 35.3397C88.9692 35.3397 86.5475 32.5223 86.5475 29.1927H98.9649L102.726 24.0701ZM86.8568 25.0433C87.578 22.5845 89.4843 20.6892 92.7819 20.6892C95.6158 20.6892 98.0374 22.5845 98.2435 25.0433H86.8568Z" fill="#1F2937"/>
</g>
</svg>
