<svg width="33" height="32" viewBox="0 0 33 32" fill="none" xmlns="http://www.w3.org/2000/svg">
<g id="uil:envelope">
<path id="Vector" d="M25.8334 5.3335H7.16675C6.10588 5.3335 5.08847 5.75492 4.33832 6.50507C3.58818 7.25521 3.16675 8.27263 3.16675 9.3335V22.6668C3.16675 23.7277 3.58818 24.7451 4.33832 25.4953C5.08847 26.2454 6.10588 26.6668 7.16675 26.6668H25.8334C26.8943 26.6668 27.9117 26.2454 28.6618 25.4953C29.412 24.7451 29.8334 23.7277 29.8334 22.6668V9.3335C29.8334 8.27263 29.412 7.25521 28.6618 6.50507C27.9117 5.75492 26.8943 5.3335 25.8334 5.3335ZM25.2867 8.00016L17.4467 15.8402C17.3228 15.9651 17.1753 16.0643 17.0129 16.132C16.8504 16.1997 16.6761 16.2346 16.5001 16.2346C16.3241 16.2346 16.1498 16.1997 15.9873 16.132C15.8248 16.0643 15.6774 15.9651 15.5534 15.8402L7.71341 8.00016H25.2867ZM27.1667 22.6668C27.1667 23.0205 27.0263 23.3596 26.7762 23.6096C26.5262 23.8597 26.187 24.0002 25.8334 24.0002H7.16675C6.81313 24.0002 6.47399 23.8597 6.22394 23.6096C5.97389 23.3596 5.83341 23.0205 5.83341 22.6668V9.88016L13.6734 17.7202C14.4234 18.4692 15.4401 18.89 16.5001 18.89C17.5601 18.89 18.5767 18.4692 19.3267 17.7202L27.1667 9.88016V22.6668Z" fill="#4B5563"/>
</g>
</svg>
