<svg width="33" height="32" viewBox="0 0 33 32" fill="none" xmlns="http://www.w3.org/2000/svg">
<g id="uil:phone-alt">
<path id="Vector" d="M26.4199 17.3335C26.1266 17.3335 25.8199 17.2402 25.5266 17.1735C24.9325 17.0426 24.3488 16.8688 23.7799 16.6535C23.1613 16.4285 22.4814 16.4401 21.871 16.6863C21.2605 16.9324 20.7627 17.3957 20.4732 17.9868L20.1799 18.5868C18.8812 17.8644 17.6879 16.9671 16.6332 15.9201C15.5862 14.8655 14.689 13.6721 13.9666 12.3735L14.5266 12.0001C15.1177 11.7107 15.5809 11.2129 15.8271 10.6024C16.0732 9.99195 16.0849 9.31203 15.8599 8.69348C15.6482 8.12338 15.4745 7.53988 15.3399 6.94682C15.2732 6.65348 15.2199 6.34682 15.1799 6.04015C15.018 5.10098 14.5261 4.25047 13.7927 3.6418C13.0594 3.03313 12.1328 2.70629 11.1799 2.72015H7.17989C6.60527 2.71475 6.03622 2.83323 5.5115 3.06752C4.98678 3.30181 4.5187 3.64641 4.13913 4.07786C3.75956 4.50931 3.4774 5.01747 3.31187 5.56777C3.14635 6.11806 3.10133 6.69756 3.17989 7.26682C3.89021 12.8527 6.44126 18.0427 10.4301 22.017C14.4189 25.9913 19.6182 28.5235 25.2066 29.2135H25.7132C26.6964 29.2149 27.6458 28.8542 28.3799 28.2001C28.8017 27.8229 29.1387 27.3604 29.3685 26.8432C29.5984 26.3261 29.7158 25.7661 29.7132 25.2001V21.2001C29.6969 20.274 29.3596 19.3822 28.759 18.677C28.1584 17.9719 27.3316 17.497 26.4199 17.3335ZM27.0866 25.3335C27.0863 25.5228 27.0458 25.7099 26.9676 25.8823C26.8894 26.0547 26.7754 26.2085 26.6332 26.3335C26.4842 26.4621 26.31 26.5582 26.1218 26.6156C25.9335 26.673 25.7353 26.6905 25.5399 26.6668C20.5464 26.0266 15.9082 23.7421 12.3568 20.1739C8.80549 16.6056 6.5431 11.9566 5.92656 6.96015C5.90534 6.76484 5.92393 6.56726 5.98123 6.37934C6.03852 6.19142 6.13332 6.01707 6.25989 5.86682C6.38484 5.72459 6.53864 5.6106 6.71106 5.53244C6.88349 5.45427 7.07058 5.41372 7.25989 5.41348H11.2599C11.57 5.40658 11.8727 5.50799 12.1161 5.70024C12.3594 5.8925 12.5282 6.16358 12.5932 6.46682C12.6466 6.83126 12.7132 7.19126 12.7932 7.54682C12.9473 8.24968 13.1522 8.94039 13.4066 9.61348L11.5399 10.4801C11.3803 10.5534 11.2367 10.6574 11.1174 10.7863C10.9981 10.9151 10.9055 11.0663 10.8448 11.2311C10.7841 11.3959 10.7565 11.571 10.7637 11.7464C10.7709 11.9219 10.8126 12.0942 10.8866 12.2535C12.8055 16.3638 16.1096 19.6679 20.2199 21.5868C20.5445 21.7202 20.9086 21.7202 21.2332 21.5868C21.3995 21.5273 21.5523 21.4354 21.6828 21.3164C21.8133 21.1974 21.9188 21.0536 21.9932 20.8935L22.8199 19.0268C23.5092 19.2733 24.2127 19.4781 24.9266 19.6402C25.2821 19.7201 25.6421 19.7868 26.0066 19.8402C26.3098 19.9052 26.5809 20.0739 26.7731 20.3173C26.9654 20.5607 27.0668 20.8634 27.0599 21.1735L27.0866 25.3335Z" fill="#4B5563"/>
</g>
</svg>
