<svg width="70" height="64" viewBox="0 0 70 64" fill="none" xmlns="http://www.w3.org/2000/svg">
<g clip-path="url(#clip0_91_3211)">
<path d="M34.9999 38.7725C38.6723 38.7725 41.6493 35.7404 41.6493 32C41.6493 28.2597 38.6723 25.2275 34.9999 25.2275C31.3276 25.2275 28.3506 28.2597 28.3506 32C28.3506 35.7404 31.3276 38.7725 34.9999 38.7725Z" fill="#087EA4"/>
<path d="M34.9999 47.2389C53.3616 47.2389 68.2467 40.4166 68.2467 32.0008C68.2467 23.585 53.3616 16.7627 34.9999 16.7627C16.6383 16.7627 1.75317 23.585 1.75317 32.0008C1.75317 40.4166 16.6383 47.2389 34.9999 47.2389Z" stroke="#087EA4" stroke-width="3"/>
<path d="M22.0433 39.6195C31.2242 55.8156 44.4676 65.5341 51.6234 61.3262C58.7791 57.1183 57.1375 40.5775 47.9566 24.3814C38.7758 8.18524 25.5324 -1.53317 18.3766 2.67471C11.2209 6.8826 12.8625 23.4233 22.0433 39.6195Z" stroke="#087EA4" stroke-width="3"/>
<path d="M22.0432 24.3816C12.8623 40.5777 11.2207 57.1185 18.3764 61.3264C25.5322 65.5342 38.7756 55.8158 47.9565 39.6197C57.1373 23.4235 58.7789 6.88278 51.6232 2.6749C44.4674 -1.53299 31.224 8.18542 22.0432 24.3816Z" stroke="#087EA4" stroke-width="3"/>
</g>
<defs>
<clipPath id="clip0_91_3211">
<rect width="69.8182" height="64" fill="white" transform="translate(0.0908203)"/>
</clipPath>
</defs>
</svg>
